<svg viewBox="0 0 24 24" fill="none" xmlns="http://www.w3.org/2000/svg">
<path d="M12 2C11.4477 2 11 2.44772 11 3V6C11 6.55228 11.4477 7 12 7C12.5523 7 13 6.55228 13 6V3C13 2.44772 12.5523 2 12 2Z" fill="#333333"/>
<path d="M12 17C11.4477 17 11 17.4477 11 18V21C11 21.5523 11.4477 22 12 22C12.5523 22 13 21.5523 13 21V18C13 17.4477 12.5523 17 12 17Z" fill="#333333"/>
<path d="M7 11C6.44772 11 6 11.4477 6 12C6 12.5523 6.44772 13 7 13H10C10.5523 13 11 12.5523 11 12C11 11.4477 10.5523 11 10 11H7Z" fill="#333333"/>
<path d="M14 11C13.4477 11 13 11.4477 13 12C13 12.5523 13.4477 13 14 13H17C17.5523 13 18 12.5523 18 12C18 11.4477 17.5523 11 17 11H14Z" fill="#333333"/>
<path d="M4.92893 4.92893C4.53841 4.53841 4.53841 3.90524 4.92893 3.51472C5.31946 3.12419 5.95262 3.12419 6.34315 3.51472L8.46447 5.63604C8.85499 6.02656 8.85499 6.65973 8.46447 7.05025C8.07394 7.44078 7.44078 7.44078 7.05025 7.05025L4.92893 4.92893Z" fill="#333333"/>
<path d="M15.5355 15.5355C15.145 15.145 15.145 14.5118 15.5355 14.1213L17.6569 12C18.0474 11.6095 18.6805 11.6095 19.0711 12C19.4616 12.3905 19.4616 13.0237 19.0711 13.4142L16.9497 15.5355C16.5592 15.9261 15.9261 15.9261 15.5355 15.5355Z" fill="#333333"/>
<path d="M4.92893 19.0711C4.53841 19.4616 3.90524 19.4616 3.51472 19.0711C3.12419 18.6805 3.12419 18.0474 3.51472 17.6569L5.63604 15.5355C6.02656 15.145 6.65973 15.145 7.05025 15.5355C7.44078 15.9261 7.44078 16.5592 7.05025 16.9497L4.92893 19.0711Z" fill="#333333"/>
<path d="M15.5355 8.46447C15.145 8.85499 14.5118 8.85499 14.1213 8.46447L12 6.34315C11.6095 5.95262 11.6095 5.31946 12 4.92893C12.3905 4.53841 13.0237 4.53841 13.4142 4.92893L15.5355 7.05025C15.9261 7.44078 15.9261 8.07394 15.5355 8.46447Z" fill="#333333"/>
</svg>